<svg width="512" height="512" viewBox="0 0 512 512" fill="none" xmlns="http://www.w3.org/2000/svg">
  <defs>
    <linearGradient id="fc-gradient" x1="112" y1="96" x2="400" y2="392" gradientUnits="userSpaceOnUse">
      <stop stop-color="#2DB4D7"/>
      <stop offset="0.55" stop-color="#1D95CF"/>
      <stop offset="1" stop-color="#59D184"/>
    </linearGradient>
  </defs>
  <g transform="translate(52 52)" stroke="url(#fc-gradient)" stroke-linecap="round" stroke-linejoin="round">
    <circle cx="204" cy="204" r="170" stroke-width="16"/>
    <path d="M34 204H374" stroke-width="14"/>
    <path d="M68 122C114 156 294 156 340 122" stroke-width="12"/>
    <path d="M68 286C114 252 294 252 340 286" stroke-width="12"/>
    <path d="M204 34V374" stroke-width="14"/>
    <path d="M126 52C170 102 182 306 126 356" stroke-width="12"/>
    <path d="M282 52C238 102 226 306 282 356" stroke-width="12"/>
    <circle cx="204" cy="34" r="14" fill="url(#fc-gradient)" stroke="none"/>
    <circle cx="204" cy="204" r="16" fill="url(#fc-gradient)" stroke="none"/>
    <circle cx="204" cy="374" r="14" fill="url(#fc-gradient)" stroke="none"/>
    <circle cx="34" cy="204" r="14" fill="url(#fc-gradient)" stroke="none"/>
    <circle cx="374" cy="204" r="14" fill="url(#fc-gradient)" stroke="none"/>
  </g>
</svg>
